# xmcd
#
# Track frame offsets:
#	150
#	16495
#	28440
#	43253
#	59090
#	70253
#	86388
#	101420
#	114118
#	130338
#	144888
#	158013
#
# Disc length: 2299 seconds
#
# Revision: 0
# Processed by: cddbd v1.4PL0 Copyright (c) Steve Scherf et al.
# Submitted via: EasyCDDAExtractor 5.0.4.1
#
DISCID=a008f90c
DTITLE=Jorge Negrete - Los Grand Exitos de Jorge Negrete
DYEAR=1983
DGENRE=
TTITLE0=Ojo Tapatios
TTITLE1=La Valentina
TTITLE2=Hasta Que Perdido Jalisco
TTITLE3=Juan Charrasqueado
TTITLE4=Serenata Tapatia
TTITLE5=Ay, Jalisco No Te Rajas
TTITLE6=Perjura
TTITLE7=Esos Altos De Jalisco
TTITLE8=Yo Soy Mexicano
TTITLE9=Cocula
TTITLE10=El Hijo Del Pueblo
TTITLE11=Mexico Lindo
EXTD=
EXTT0=
EXTT1=
EXTT2=
EXTT3=
EXTT4=
EXTT5=
EXTT6=
EXTT7=
EXTT8=
EXTT9=
EXTT10=
EXTT11=
PLAYORDER=
